<?xml version="1.0" encoding="UTF-8"?>
<svg xmlns="http://www.w3.org/2000/svg" xmlns:xlink="http://www.w3.org/1999/xlink" viewBox="0 0 64 64" width="64px" height="64px">
<g id="surface46113035">
<path style=" stroke:none;fill-rule:nonzero;fill:rgb(99.607843%,98.431373%,98.431373%);fill-opacity:1;" d="M 32 58 C 17.664062 58 6 46.335938 6 32 C 6 17.664062 17.664062 6 32 6 C 46.335938 6 58 17.664062 58 32 C 58 46.335938 46.335938 58 32 58 Z M 32 8 C 18.765625 8 8 18.765625 8 32 C 8 45.234375 18.765625 56 32 56 C 45.234375 56 56 45.234375 56 32 C 56 18.765625 45.234375 8 32 8 Z M 32 8 "/>
<path style=" stroke:none;fill-rule:nonzero;fill:rgb(100%,100%,100%);fill-opacity:1;" d="M 19 26 L 25 26 L 25 44 L 19 44 Z M 19 26 "/>
<path style=" stroke:none;fill-rule:nonzero;fill:rgb(100%,100%,100%);fill-opacity:1;" d="M 26 21 C 26 22.65625 24.433594 24 22.5 24 C 20.566406 24 19 22.65625 19 21 C 19 19.34375 20.566406 18 22.5 18 C 24.433594 18 26 19.34375 26 21 Z M 26 21 "/>
<path style=" stroke:none;fill-rule:nonzero;fill:rgb(100%,100%,100%);fill-opacity:1;" d="M 40 26 L 39.46875 26 C 37.28125 26 35.46875 27.570312 35.082031 29.648438 L 35 29.648438 L 35 26 L 29 26 L 29 44 L 35 44 L 35 33.882812 C 35.007812 33.503906 35.035156 33.152344 35.085938 32.824219 C 35.390625 31.492188 36.578125 30.5 38 30.5 C 39.65625 30.5 41 31.84375 41 33.5 L 41 44 L 47 44 L 47 33 C 47 29.132812 43.867188 26 40 26 Z M 40 26 "/>
</g>
</svg>
